<?xml version="1.0" encoding="UTF-8"?>
<svg version="1.1" xmlns="http://www.w3.org/2000/svg" width="100" height="100">
<path d="M0 0 C33 0 66 0 100 0 C100 33 100 66 100 100 C67 100 34 100 0 100 C0 67 0 34 0 0 Z " fill="#FEFEFE" transform="translate(0,0)"/>
<path d="M0 0 C3.41876498 1.77619874 5.80269113 3.83312142 8 7 C8.88204993 10.04620523 9.11469335 12.83876463 9 16 C10.65 15.67 12.3 15.34 14 15 C14.31107784 21.47502759 14.52285874 26.33826275 11 32 C10.25917345 33.45244489 9.53040381 34.91108939 8.8125 36.375 C8.214375 37.57125 7.61625 38.7675 7 40 C3.7 40 0.4 40 -3 40 C-3 37.36 -3 34.72 -3 32 C-4.65 32 -6.3 32 -8 32 C-8 35.3 -8 38.6 -8 42 C-8.66 42 -9.32 42 -10 42 C-10 41.34 -10 40.68 -10 40 C-12.97 40 -15.94 40 -19 40 C-19.94401042 38.046875 -20.88802083 36.09375 -21.83203125 34.140625 C-22.92301854 31.94645813 -22.92301854 31.94645813 -24.625 30.1875 C-26.61626631 27.01957633 -26.29019815 24.44713352 -26.1875 20.75 C-26.16042969 19.48671875 -26.13335938 18.2234375 -26.10546875 16.921875 C-26.07066406 15.95765625 -26.03585938 14.9934375 -26 14 C-24.68 14.33 -23.36 14.66 -22 15 C-21.76925781 14.32453125 -21.53851563 13.6490625 -21.30078125 12.953125 C-18.01110114 3.95526477 -18.01110114 3.95526477 -13 1 C-8.57674142 -0.47441953 -4.60913007 -0.80897711 0 0 Z " fill="#FAF4E3" transform="translate(56,30)"/>
<path d="M0 0 C0.30310068 5.15271161 -0.24989889 7.69549391 -3 12 C-2.67 12.99 -2.34 13.98 -2 15 C-1.01 15.33 -0.02 15.66 1 16 C0.39009109 19.55780196 -0.5783681 22.6828589 -2 26 C-4.31 26 -6.62 26 -9 26 C-9.3690205 16.58997722 -9.3690205 16.58997722 -7 12 C-7.66 12 -8.32 12 -9 12 C-9 10.68 -9 9.36 -9 8 C-11.475 7.01 -11.475 7.01 -14 6 C-14 3 -14 3 -13 1 C-12.06027344 1.01740234 -12.06027344 1.01740234 -11.1015625 1.03515625 C-9.87566406 1.04869141 -9.87566406 1.04869141 -8.625 1.0625 C-7.40683594 1.07990234 -7.40683594 1.07990234 -6.1640625 1.09765625 C-3.79725153 0.9908507 -2.35519775 0 0 0 Z " fill="#FEFBF2" transform="translate(64,43)"/>
<path d="M0 0 C1.0625 1.875 1.0625 1.875 2 4 C1.67 4.66 1.34 5.32 1 6 C1.66 5.34 2.32 4.68 3 4 C5.625 4.375 5.625 4.375 8 5 C8 5.99 8 6.98 8 8 C7.01 8.495 7.01 8.495 6 9 C5.53248212 11.35599235 5.53248212 11.35599235 5.375 14.0625 C5.30023438 14.98160156 5.22546875 15.90070312 5.1484375 16.84765625 C5.09945312 17.55792969 5.05046875 18.26820312 5 19 C7.475 19.99 7.475 19.99 10 21 C6.55549263 23.29633824 4.06187717 23.54016485 0 24 C-0.99 21.69 -1.98 19.38 -3 17 C-4.32 17.33 -5.64 17.66 -7 18 C-6.7525 16.2984375 -6.7525 16.2984375 -6.5 14.5625 C-5.82976803 10.62569176 -5.82976803 10.62569176 -7 7 C-2.88888889 1.44444444 -2.88888889 1.44444444 0 0 Z " fill="#FDFBF3" transform="translate(44,32)"/>
<path d="M0 0 C2.4375 1.4375 2.4375 1.4375 5 4 C5.73151889 6.99304558 5.92773687 9.92553213 6 13 C7.65 12.67 9.3 12.34 11 12 C11.56631283 23.78769664 11.56631283 23.78769664 8 29 C7.34 29.33 6.68 29.66 6 30 C5.67 28.68 5.34 27.36 5 26 C4.01 26 3.02 26 2 26 C1.3125 24.3125 1.3125 24.3125 1 22 C1.99335201 20.32936253 2.99431758 18.66324401 4 17 C4.71923208 13.30476048 4.71923208 13.30476048 5 10 C3.68 10.33 2.36 10.66 1 11 C1.33 10.01 1.66 9.02 2 8 C0.68 7.34 -0.64 6.68 -2 6 C1 6 1 6 4 7 C3.01 5.824375 3.01 5.824375 2 4.625 C0 2 0 2 0 0 Z " fill="#F1E1C5" transform="translate(59,33)"/>
<path d="M0 0 C0.66 0.66 1.32 1.32 2 2 C4.06874034 2.6425235 4.06874034 2.6425235 6 3 C4.68 3.33 3.36 3.66 2 4 C2 5.98 2 7.96 2 10 C2.99 9.67 3.98 9.34 5 9 C6.06775224 10.96466413 7.06553465 12.96855359 8 15 C7.67 15.66 7.34 16.32 7 17 C6.67 16.01 6.34 15.02 6 14 C5.34 14 4.68 14 4 14 C4 15.98 4 17.96 4 20 C3.34 20 2.68 20 2 20 C2 19.34 2 18.68 2 18 C1.34 18 0.68 18 0 18 C-2.4529646 12.51690266 -2.02750561 7.77063755 -1 2 C-0.67 1.34 -0.34 0.68 0 0 Z " fill="#F4E4CA" transform="translate(36,39)"/>
<path d="M0 0 C1.258125 -0.04125 2.51625 -0.0825 3.8125 -0.125 C4.52019531 -0.14820313 5.22789063 -0.17140625 5.95703125 -0.1953125 C8 0 8 0 11 2 C8.03 1.67 5.06 1.34 2 1 C1.67 2.32 1.34 3.64 1 5 C1.825 5.4125 2.65 5.825 3.5 6.25 C4.325 6.8275 5.15 7.405 6 8 C6 9.32 6 10.64 6 12 C6.66 12 7.32 12 8 12 C7.34 16.62 6.68 21.24 6 26 C8.31 26 10.62 26 13 26 C13.12375 25.195625 13.2475 24.39125 13.375 23.5625 C13.58125 22.716875 13.7875 21.87125 14 21 C14.66 20.67 15.32 20.34 16 20 C15.34 22.31 14.68 24.62 14 27 C10.7 27 7.4 27 4 27 C4.33 23.7 4.66 20.4 5 17 C3.02 17 1.04 17 -1 17 C-0.360625 16.896875 0.27875 16.79375 0.9375 16.6875 C1.9584375 16.3471875 1.9584375 16.3471875 3 16 C3.33 15.01 3.66 14.02 4 13 C4.33 13.66 4.66 14.32 5 15 C5.10540926 12.78918149 5.10540926 12.78918149 4 10 C3.34 9.731875 2.68 9.46375 2 9.1875 C0 8 0 8 -0.8125 5 C-1 2 -1 2 0 0 Z " fill="#EBDFCA" transform="translate(49,43)"/>
<path d="M0 0 C2.69082872 0.17635452 5.32851446 0.61835921 8 1 C8 3.64 8 6.28 8 9 C5.69 9 3.38 9 1 9 C-0.06775224 7.03533587 -1.06553465 5.03144641 -2 3 C-1 1 -1 1 0 0 Z " fill="#FEFBF7" transform="translate(37,60)"/>
<path d="M0 0 C1.299375 -0.03867187 1.299375 -0.03867187 2.625 -0.078125 C5.42903194 0.30927415 6.26286782 1.07858478 8 3.25 C5.36 2.92 2.72 2.59 0 2.25 C-0.99 3.735 -0.99 3.735 -2 5.25 C-1.01 5.25 -0.02 5.25 1 5.25 C0.67 5.91 0.34 6.57 0 7.25 C-1.66321482 7.60015049 -3.33034549 7.93197057 -5 8.25 C-5.99 8.91 -6.98 9.57 -8 10.25 C-7.34 8.27 -6.68 6.29 -6 4.25 C-9.24565858 3.90944803 -9.24565858 3.90944803 -11.6875 6.75 C-12.450625 7.575 -13.21375 8.4 -14 9.25 C-13.66466224 6.12018088 -12.99933599 5.24938841 -10.625 3.0625 C-7.02099502 0.57402037 -4.28724393 0.07655793 0 0 Z " fill="#EFE1CD" transform="translate(51,29.75)"/>
<path d="M0 0 C1.32 0.33 2.64 0.66 4 1 C3.979375 2.299375 3.95875 3.59875 3.9375 4.9375 C3.92995028 9.69382325 4.40112883 14.28388953 5 19 C2.47503527 17.35877293 1.41892588 16.60385345 0 14 C-0.45179989 9.30659644 -0.28626938 4.7011794 0 0 Z " fill="#F4E5CD" transform="translate(30,44)"/>
<path d="M0 0 C0.99 0.33 1.98 0.66 3 1 C3.63019694 11.15317287 3.63019694 11.15317287 1 14.6875 C0.34 15.120625 -0.32 15.55375 -1 16 C-3.22648084 10.55749129 -3.22648084 10.55749129 -2.1875 8 C-1.795625 7.34 -1.40375 6.68 -1 6 C-0.61709538 4.00889599 -0.27395385 2.00899487 0 0 Z " fill="#FEF5D8" transform="translate(66,47)"/>
<path d="M0 0 C0.92232422 0.32484375 0.92232422 0.32484375 1.86328125 0.65625 C3.07564453 1.07390625 3.07564453 1.07390625 4.3125 1.5 C5.11300781 1.7784375 5.91351563 2.056875 6.73828125 2.34375 C9.08769422 3.13933107 9.08769422 3.13933107 12 3 C11.6875 5.875 11.6875 5.875 11 9 C10.01 9.66 9.02 10.32 8 11 C7.01 10.34 6.02 9.68 5 9 C5 7.68 5 6.36 5 5 C2.525 4.01 2.525 4.01 0 3 C0 2.01 0 1.02 0 0 Z " fill="#FDFAED" transform="translate(50,46)"/>
<path d="M0 0 C6.75 2.875 6.75 2.875 9 4 C8.67 4.99 8.34 5.98 8 7 C4.37 6.67 0.74 6.34 -3 6 C-2.67 5.01 -2.34 4.02 -2 3 C-1.34 3 -0.68 3 0 3 C0 2.01 0 1.02 0 0 Z " fill="#FBF7E4" transform="translate(52,37)"/>
<path d="M0 0 C1.258125 -0.04125 2.51625 -0.0825 3.8125 -0.125 C4.52019531 -0.14820313 5.22789063 -0.17140625 5.95703125 -0.1953125 C8 0 8 0 11 2 C8.03 1.67 5.06 1.34 2 1 C1.67 2.32 1.34 3.64 1 5 C3.475 6.98 3.475 6.98 6 9 C4 10 4 10 1.9375 9.4375 C0 8 0 8 -0.8125 5 C-1 2 -1 2 0 0 Z " fill="#F0E5D6" transform="translate(49,43)"/>
<path d="M0 0 C0.66 0.66 1.32 1.32 2 2 C4.06874034 2.6425235 4.06874034 2.6425235 6 3 C4.68 3.33 3.36 3.66 2 4 C1.67 6.31 1.34 8.62 1 11 C0.01 11.33 -0.98 11.66 -2 12 C-1.85904936 10.3745692 -1.71207913 8.74965949 -1.5625 7.125 C-1.48128906 6.22007813 -1.40007813 5.31515625 -1.31640625 4.3828125 C-1 2 -1 2 0 0 Z " fill="#F0E0C3" transform="translate(36,39)"/>
<path d="M0 0 C1.32 0.33 2.64 0.66 4 1 C4.33 2.32 4.66 3.64 5 5 C4.34 4.67 3.68 4.34 3 4 C3 3.34 3 2.68 3 2 C2.34 2 1.68 2 1 2 C1 3.98 1 5.96 1 8 C0.34 8 -0.32 8 -1 8 C-1.66 5.69 -2.32 3.38 -3 1 C-2.01 1.495 -2.01 1.495 -1 2 C-0.67 1.34 -0.34 0.68 0 0 Z " fill="#F5EED7" transform="translate(39,51)"/>
<path d="M0 0 C0.99 0 1.98 0 3 0 C2.6875 2.875 2.6875 2.875 2 6 C1.01 6.66 0.02 7.32 -1 8 C-1.93065133 5.39417629 -2.14917407 4.35801776 -1.0625 1.75 C-0.711875 1.1725 -0.36125 0.595 0 0 Z " fill="#F6EFDD" transform="translate(59,49)"/>
<path d="M0 0 C0.66 0.33 1.32 0.66 2 1 C1.67 1.99 1.34 2.98 1 4 C2.32 4 3.64 4 5 4 C4.67 4.66 4.34 5.32 4 6 C2.33678518 6.35015049 0.66965451 6.68197057 -1 7 C-1.99 7.66 -2.98 8.32 -4 9 C-2.94124926 5.59687262 -1.99097846 2.98646769 0 0 Z " fill="#F2E9D7" transform="translate(47,31)"/>
<path d="M0 0 C0.33 0 0.66 0 1 0 C2.05699482 5.28497409 2.05699482 5.28497409 2 8 C0.0625 10.5 0.0625 10.5 -2 12 C-1.33333333 8 -0.66666667 4 0 0 Z " fill="#EEE0CB" transform="translate(67,51)"/>
<path d="M0 0 C2 2 2 2 2 5 C2.66 5 3.32 5 4 5 C4 5.66 4 6.32 4 7 C2.68 7 1.36 7 0 7 C-1.125 2.25 -1.125 2.25 0 0 Z " fill="#FDFCEE" transform="translate(35,65)"/>
<path d="M0 0 C5.75 0.75 5.75 0.75 8 3 C5.69 2.67 3.38 2.34 1 2 C1 2.66 1 3.32 1 4 C0.01 4 -0.98 4 -2 4 C-1.34 2.68 -0.68 1.36 0 0 Z " fill="#FEFAE8" transform="translate(51,31)"/>
</svg>
